# xmcd CD database file
#
# Track frame offsets:
#	150
#	26225
#	48600
#
# Disc length: 992 seconds
#
# Revision: 0
# Processed by: cddbd v1.5.1PL2 Copyright (c) Steve Scherf et al.
# Submitted via: CDex 1.51
#
DISCID=2403de03
DTITLE=工藤静香 - ７
DYEAR=1900
DGENRE=JPop
TTITLE0=７
TTITLE1=８月…
TTITLE2=７（オリジナル・カラオケ）
EXTD=
EXTT0=
EXTT1=
EXTT2=
PLAYORDER=
